<?xml version="1.0" encoding="UTF-8" standalone="no"?>
<svg width="31px" height="31px" viewBox="0 0 31 31" version="1.1" xmlns="http://www.w3.org/2000/svg" xmlns:xlink="http://www.w3.org/1999/xlink" xmlns:sketch="http://www.bohemiancoding.com/sketch/ns">
    <!-- Generator: Sketch 3.4.4 (17249) - http://www.bohemiancoding.com/sketch -->
    <title>mask</title>
    <desc>Created with Sketch.</desc>
    <defs></defs>
    <g id="Page-1" stroke="none" stroke-width="1" fill="none" fill-rule="evenodd" sketch:type="MSPage">
        <g id="Phone---installation-in-progress---portrait-Copy" sketch:type="MSArtboardGroup" transform="translate(-70.000000, -290.000000)" fill-opacity="0.270000011" fill="#1F98DE">
            <g id="S3" sketch:type="MSLayerGroup" transform="translate(38.000000, 210.000000)">
                <g id="notification" transform="translate(24.000000, 72.000000)" sketch:type="MSShapeGroup">
                    <path d="M23.5,38.3673469 C31.711009,38.3673469 38.3673469,31.711009 38.3673469,23.5 C38.3673469,15.288991 31.711009,8.63265306 23.5,8.63265306 C15.288991,8.63265306 8.63265306,15.288991 8.63265306,23.5 C8.63265306,31.711009 15.288991,38.3673469 23.5,38.3673469 Z M29.0416667,22.125 L25.875,22.125 L25.875,17.375 L21.125,17.375 L21.125,22.125 L17.9583333,22.125 L23.5,27.6666667 L29.0416667,22.125 Z M17.9583333,29.25 L17.9583333,30.8333333 L29.0416667,30.8333333 L29.0416667,29.25 L17.9583333,29.25 Z" id="mask"></path>
                </g>
            </g>
        </g>
    </g>
</svg>